<?xml version="1.0" encoding="utf-8"?>
<!-- Generator: Adobe Illustrator 22.0.0, SVG Export Plug-In . SVG Version: 6.00 Build 0)  -->
<svg version="1.1" id="Capa_1" xmlns="http://www.w3.org/2000/svg" xmlns:xlink="http://www.w3.org/1999/xlink" x="0px" y="0px"
	 viewBox="0 0 599 444.6" style="enable-background:new 0 0 599 444.6;" xml:space="preserve">
<style type="text/css">
	.st0{fill:#FFFFFF;}
</style>
<g>
	<rect x="50.6" y="217.9" class="st0" width="26.2" height="52.5"/>
	<rect x="50.6" y="64.4" class="st0" width="26.2" height="52.6"/>
	<path class="st0" d="M285.6,36.1c0-19.4-15.8-35.2-35.2-35.2h-216C15,0.9-0.8,16.7-0.8,36.1v118.2h286.4V36.1z M76.8,117H50.6V64.4
		h26.2V117z"/>
	<path class="st0" d="M157.6,224.7c0-14.3,11.6-26,26-26h101.9v-18.2H-0.8v226.7c0,19.4,15.8,35.1,35.1,35.1h216.1
		c19.4,0,35.1-15.8,35.1-35.1V250.7H183.6C169.3,250.7,157.6,239.1,157.6,224.7z M76.8,270.4H50.6v-52.5h26.2V270.4z"/>
	<path class="st0" d="M300.7,309.4c-6.4,6.2-6.4,16.4-0.2,22.7c3.1,3.2,7.3,4.8,11.4,4.8s8.2-1.5,11.3-4.6l97.5-96.3
		c3.1-3,4.8-7.1,4.8-11.4s-1.7-8.4-4.8-11.4l-97.5-96.3c-3.1-3.1-7.1-4.6-11.2-4.6c-4.1,0-8.3,1.6-11.5,4.8
		c-6.2,6.3-6.1,16.5,0.2,22.7l69.7,68.8h-84.9v32h84.9L300.7,309.4z"/>
	<path class="st0" d="M183.6,208.6c-8.8,0-16,7.1-16,16c0,8.8,7.1,16,16,16h101.9v-32H183.6z"/>
	<path class="st0" d="M587.8,23.6H409.6c-5.5,0-10.5,4.5-10.5,10.5c0,5.5,4.5,10.5,10.5,10.5H436v33.8h17.4c5.5,0,10,4.5,10,10
		s-4.5,10-10,10H436V139h17.4c5.5,0,10,4.5,10,10s-4.5,10-10,10H436v40.8h17.4c5.5,0,10,4.5,10,10s-4.5,10-10,10H436v40.8h17.4
		c5.5,0,10,4.5,10,10s-4.5,10-10,10H436V357c0,17.4,7,32.8,18.4,44.3c11.4,11.4,26.9,18.4,44.3,18.4c17.4,0,32.8-7,44.3-18.4
		c11.5-11.4,18.4-26.9,18.4-44.3V44h26.4c5.5,0,10.5-4.5,10.5-10.5C598.2,28,593.8,23.6,587.8,23.6z"/>
</g>
</svg>
