<?xml version="1.0" encoding="utf-8"?>
<!-- Generator: Adobe Illustrator 22.0.0, SVG Export Plug-In . SVG Version: 6.00 Build 0)  -->
<svg version="1.1" id="Capa_1" xmlns="http://www.w3.org/2000/svg" xmlns:xlink="http://www.w3.org/1999/xlink" x="0px" y="0px"
	 viewBox="0 0 599 444.6" style="enable-background:new 0 0 599 444.6;" xml:space="preserve">
<style type="text/css">
	.st0{fill:#FFFFFF;}
</style>
<g>
	<path class="st0" d="M297.2,128.5c0-4.1-1.5-8.2-4.6-11.4c-1.6-1.6-3.4-2.8-5.3-3.6c1.9,0.8,3.8,2,5.3,3.6
		C295.7,120.2,297.3,124.4,297.2,128.5z"/>
	<polygon class="st0" points="285.6,146.6 292.4,139.8 285.6,146.6 	"/>
	<path class="st0" d="M296,314.7c0.4,1,0.7,2,0.9,3C296.7,316.7,296.4,315.7,296,314.7z"/>
	<path class="st0" d="M291.4,333.2c-0.1,0.1-0.3,0.2-0.4,0.3C291.1,333.5,291.2,333.4,291.4,333.2z"/>
	<rect x="50.6" y="64.4" class="st0" width="26.2" height="52.5"/>
	<path class="st0" d="M297.2,322.3c0.1-1.5,0.1-3.1-0.3-4.6C297.2,319.2,297.3,320.8,297.2,322.3z"/>
	<path class="st0" d="M297.2,322.3c-0.1,1.5-0.5,3.1-1.1,4.5C296.7,325.3,297,323.8,297.2,322.3z"/>
	<polygon class="st0" points="292.4,309.4 285.6,302.7 285.6,302.7 	"/>
	<path class="st0" d="M287.3,113.5c-0.6-0.2-1.1-0.4-1.7-0.6l0,0C286.2,113.1,286.7,113.3,287.3,113.5z"/>
	<path class="st0" d="M285.6,336.3c0.1,0,0.2,0,0.2-0.1C285.7,336.2,285.7,336.3,285.6,336.3L285.6,336.3z"/>
	<path class="st0" d="M290.1,334.2c-0.2,0.1-0.4,0.2-0.6,0.3C289.7,334.4,289.9,334.3,290.1,334.2z"/>
	<rect x="50.6" y="217.8" class="st0" width="26.2" height="52.5"/>
	<path class="st0" d="M288.7,335c-0.2,0.1-0.4,0.2-0.6,0.3C288.3,335.2,288.5,335.1,288.7,335z"/>
	<path class="st0" d="M287.3,335.7c-0.2,0.1-0.4,0.2-0.7,0.2C286.8,335.9,287.1,335.8,287.3,335.7z"/>
	<polygon class="st0" points="251.2,180.5 251.2,180.5 277.7,154.3 277.7,154.3 	"/>
	<path class="st0" d="M285.6,112.9c-1.4-0.4-2.9-0.6-4.4-0.6h0C282.7,112.3,284.1,112.5,285.6,112.9L285.6,112.9z"/>
	<polygon class="st0" points="277.7,154.3 277.7,154.3 285.6,146.6 285.6,146.6 	"/>
	<path class="st0" d="M281.2,102.3c1.5,0,3,0.1,4.4,0.4V36.1c0-19.4-15.8-35.1-35.1-35.1H34.4C15,0.9-0.8,16.7-0.8,36.1v118.2h218.6
		l45-44.5C267.8,105,274.3,102.3,281.2,102.3z M76.8,117H50.6V64.4h26.2V117z"/>
	<path class="st0" d="M272.4,334.3c-0.3-0.2-0.6-0.4-0.9-0.6C271.9,333.9,272.1,334.1,272.4,334.3z"/>
	<polygon class="st0" points="222.7,208.6 222.7,208.6 251.2,180.5 251.2,180.5 	"/>
	<path class="st0" d="M167.9,221.4c0.3-1.6,0.9-3.1,1.6-4.4C168.8,218.4,168.2,219.9,167.9,221.4z"/>
	<path class="st0" d="M284.3,336.6c-0.2,0-0.5,0.1-0.7,0.1C283.8,336.7,284.1,336.6,284.3,336.6z"/>
	<path class="st0" d="M271.1,333.4c-0.4-0.3-0.8-0.7-1.2-1.1C270.3,332.7,270.7,333,271.1,333.4z"/>
	<path class="st0" d="M273.8,335.1c-0.3-0.1-0.5-0.3-0.8-0.5C273.3,334.8,273.5,335,273.8,335.1z"/>
	<path class="st0" d="M262.9,339.4l-97.5-96.3c-5-4.9-7.7-11.5-7.7-18.5c0-6.9,2.8-13.7,7.8-18.5l25.9-25.6h-192v226.7
		c0,19.4,15.8,35.1,35.1,35.1h216.1c19.4,0,35.1-15.8,35.1-35.1v-60.7c-1.4,0.2-2.9,0.4-4.4,0.4
		C274.3,346.9,267.8,344.2,262.9,339.4z M76.8,270.4H50.6v-52.5h26.2V270.4z"/>
	<path class="st0" d="M276.7,336.3c-0.3-0.1-0.5-0.2-0.8-0.3C276.1,336.1,276.4,336.2,276.7,336.3z"/>
	<path class="st0" d="M278.2,336.6c-0.3-0.1-0.5-0.1-0.8-0.2C277.6,336.5,277.9,336.6,278.2,336.6z"/>
	<path class="st0" d="M281.2,336.9C281.2,336.9,281.2,336.9,281.2,336.9c-0.2,0-0.5,0-0.8,0C280.7,336.9,280.9,336.9,281.2,336.9z"
		/>
	<path class="st0" d="M279.7,336.8c-0.3,0-0.5-0.1-0.8-0.1C279.2,336.8,279.4,336.8,279.7,336.8z"/>
	<path class="st0" d="M285.1,336.4c0.2,0,0.3-0.1,0.5-0.1v0C285.4,336.3,285.3,336.4,285.1,336.4z"/>
	<path class="st0" d="M282.8,336.8c-0.2,0-0.5,0-0.7,0C282.3,336.9,282.5,336.8,282.8,336.8z"/>
	<path class="st0" d="M275.2,335.8c-0.3-0.1-0.5-0.2-0.8-0.4C274.7,335.5,274.9,335.7,275.2,335.8z"/>
	<polygon class="st0" points="285.6,302.7 285.6,302.7 222.7,240.7 222.7,240.7 	"/>
	<path class="st0" d="M285.6,146.6l6.9-6.8c1.2-1.2,2.1-2.5,2.9-3.9c0.5-0.9,0.9-1.9,1.2-2.9c0.5-1.5,0.7-3,0.7-4.6
		c0-4.1-1.5-8.2-4.6-11.4c-1.6-1.6-3.4-2.8-5.3-3.6c-0.6-0.2-1.1-0.4-1.7-0.6V146.6z"/>
	<path class="st0" d="M409.5,240.7c8.9,0,16-7.2,16-16s-7.2-16-16-16H285.6v32.1H409.5z"/>
	<path class="st0" d="M285.6,336.3c0.1,0,0.2,0,0.2-0.1c0.3-0.1,0.5-0.2,0.8-0.3c0.2-0.1,0.4-0.1,0.7-0.2c0.3-0.1,0.5-0.2,0.8-0.4
		c0.2-0.1,0.4-0.2,0.6-0.3c0.3-0.1,0.5-0.3,0.8-0.5c0.2-0.1,0.4-0.2,0.6-0.3c0.3-0.2,0.6-0.4,0.9-0.6c0.1-0.1,0.3-0.2,0.4-0.3
		c0.4-0.3,0.8-0.7,1.2-1.1c1.6-1.6,2.7-3.4,3.5-5.3c0.6-1.5,0.9-3,1.1-4.5c0.1-1.5,0.1-3.1-0.3-4.6c-0.2-1-0.5-2-0.9-3
		c-0.8-1.9-2-3.7-3.6-5.3l-6.9-6.8V336.3z"/>
	<polygon class="st0" points="277.7,154.3 232.1,154.3 205.5,180.5 251.2,180.5 	"/>
	<path class="st0" d="M285.6,146.6v-33.6c-1.4-0.4-2.9-0.6-4.4-0.6c-1,0-2,0.1-3,0.3c-1,0.2-2,0.5-3,0.9c-1.9,0.8-3.7,1.9-5.3,3.5
		l-37.8,37.3h45.7L285.6,146.6z"/>
	<path class="st0" d="M222.7,208.6l28.4-28.1h-45.7l-33.1,32.7c-1.1,1.1-2.1,2.4-2.9,3.8c-0.8,1.4-1.3,2.9-1.6,4.4
		c-0.2,1-0.3,2.1-0.3,3.2c0,2.7,0.7,5.3,1.9,7.6c0.8,1.4,1.7,2.7,2.9,3.8l97.5,96.3c0.4,0.4,0.8,0.7,1.2,1.1
		c0.1,0.1,0.3,0.2,0.4,0.3c0.3,0.2,0.6,0.4,0.9,0.6c0.2,0.1,0.4,0.2,0.5,0.3c0.3,0.2,0.5,0.3,0.8,0.5c0.2,0.1,0.4,0.2,0.6,0.3
		c0.3,0.1,0.5,0.3,0.8,0.4c0.2,0.1,0.4,0.2,0.7,0.2c0.3,0.1,0.5,0.2,0.8,0.3c0.2,0.1,0.5,0.1,0.7,0.2c0.3,0.1,0.5,0.1,0.8,0.2
		c0.2,0,0.5,0.1,0.7,0.1c0.3,0,0.5,0.1,0.8,0.1c0.2,0,0.5,0,0.7,0c0.3,0,0.5,0,0.8,0c0.3,0,0.6,0,0.8,0c0.2,0,0.5,0,0.7,0
		c0.3,0,0.5-0.1,0.8-0.1c0.2,0,0.5-0.1,0.7-0.1c0.3-0.1,0.5-0.1,0.8-0.2c0.2,0,0.3-0.1,0.5-0.1v-33.6l-62.8-62h0h62.8v-32.1H222.7
		L222.7,208.6z"/>
	<path class="st0" d="M286.6,335.9c-0.3,0.1-0.5,0.2-0.8,0.3C286.1,336.1,286.4,336,286.6,335.9z"/>
	<path class="st0" d="M288.1,335.3c-0.3,0.1-0.5,0.3-0.8,0.4C287.6,335.6,287.8,335.4,288.1,335.3z"/>
	<path class="st0" d="M289.5,334.5c-0.3,0.2-0.5,0.3-0.8,0.5C289,334.9,289.3,334.7,289.5,334.5z"/>
	<path class="st0" d="M290.9,333.6c-0.3,0.2-0.6,0.4-0.9,0.6C290.4,334,290.7,333.8,290.9,333.6z"/>
	<path class="st0" d="M292.6,332.1c-0.4,0.4-0.8,0.8-1.2,1.1C291.8,332.9,292.2,332.5,292.6,332.1z"/>
	<path class="st0" d="M297.2,128.5c0,1.5-0.2,3.1-0.7,4.6C297,131.5,297.2,130,297.2,128.5z"/>
	<path class="st0" d="M296.5,133c-0.3,1-0.7,2-1.2,2.9C295.8,135,296.2,134,296.5,133z"/>
	<path class="st0" d="M281.2,112.3c-1,0-2,0.1-3,0.3C279.1,112.4,280.2,112.3,281.2,112.3L281.2,112.3z"/>
	<path class="st0" d="M280.4,336.9c-0.2,0-0.5,0-0.7,0C279.9,336.9,280.2,336.9,280.4,336.9z"/>
	<path class="st0" d="M275.9,336c-0.2-0.1-0.4-0.1-0.7-0.2C275.4,335.9,275.7,335.9,275.9,336z"/>
	<path class="st0" d="M273,334.6c-0.2-0.1-0.4-0.2-0.5-0.3C272.6,334.4,272.8,334.5,273,334.6z"/>
	<path class="st0" d="M274.4,335.4c-0.2-0.1-0.4-0.2-0.6-0.3C274,335.2,274.2,335.3,274.4,335.4z"/>
	<path class="st0" d="M271.6,333.7c-0.1-0.1-0.3-0.2-0.4-0.3C271.3,333.5,271.4,333.6,271.6,333.7z"/>
	<path class="st0" d="M285.1,336.4c-0.3,0.1-0.5,0.1-0.8,0.2C284.6,336.5,284.9,336.5,285.1,336.4z"/>
	<path class="st0" d="M283.6,336.7c-0.3,0-0.5,0.1-0.8,0.1C283.1,336.8,283.3,336.7,283.6,336.7z"/>
	<path class="st0" d="M277.4,336.4c-0.2-0.1-0.5-0.1-0.7-0.2C276.9,336.3,277.1,336.4,277.4,336.4z"/>
	<path class="st0" d="M282.1,336.9c-0.3,0-0.6,0-0.8,0C281.5,336.9,281.8,336.9,282.1,336.9z"/>
	<path class="st0" d="M278.9,336.7c-0.2,0-0.5-0.1-0.7-0.1C278.4,336.7,278.6,336.7,278.9,336.7z"/>
</g>
<g>
	<g>
		<path class="st0" d="M587.8,23.6H409.6c-5.5,0-10.5,4.5-10.5,10.5c0,5.5,4.5,10.5,10.5,10.5H436v33.8h17.4c5.5,0,10,4.5,10,10
			c0,5.5-4.5,10-10,10H436V139h17.4c5.5,0,10,4.5,10,10c0,5.5-4.5,10-10,10H436v40.8h17.4c5.5,0,10,4.5,10,10s-4.5,10-10,10H436
			v40.8h17.4c5.5,0,10,4.5,10,10c0,5.5-4.5,10-10,10H436V357c0,17.4,7,32.8,18.4,44.3c11.4,11.4,26.9,18.4,44.3,18.4
			s32.8-7,44.3-18.4s18.4-26.9,18.4-44.3V44h26.4c5.5,0,10.5-4.5,10.5-10.5C598.2,28,593.8,23.6,587.8,23.6z"/>
	</g>
</g>
</svg>
