<?xml version="1.0" encoding="utf-8"?>
<!-- Generator: Adobe Illustrator 22.0.0, SVG Export Plug-In . SVG Version: 6.00 Build 0)  -->
<svg version="1.1" id="Layer_1" xmlns="http://www.w3.org/2000/svg" xmlns:xlink="http://www.w3.org/1999/xlink" x="0px" y="0px"
	 viewBox="0 0 280.2 51.8" style="enable-background:new 0 0 280.2 51.8;" xml:space="preserve">
<style type="text/css">
	.st0{fill:#74BECD;}
	.st1{fill:#FFFFFF;}
</style>
<g>
	<path class="st0" d="M13.9,26.4c0,2.3-1.9,4.2-4.2,4.2c-2.3,0-4.2-1.9-4.2-4.2c0-2.3,1.9-4.2,4.2-4.2C12,22.1,13.9,24,13.9,26.4"/>
	<path class="st1" d="M24.5,26.4c0,2.3-1.9,4.2-4.2,4.2c-2.3,0-4.2-1.9-4.2-4.2c0-2.3,1.9-4.2,4.2-4.2C22.6,22.1,24.5,24,24.5,26.4"
		/>
	<path class="st0" d="M35.1,26.4c0,2.3-1.9,4.2-4.2,4.2c-2.3,0-4.2-1.9-4.2-4.2c0-2.3,1.9-4.2,4.2-4.2C33.2,22.1,35.1,24,35.1,26.4"
		/>
	<path class="st0" d="M45.6,26.4c0,2.3-1.9,4.2-4.2,4.2c-2.3,0-4.2-1.9-4.2-4.2c0-2.3,1.9-4.2,4.2-4.2C43.7,22.1,45.6,24,45.6,26.4"
		/>
	<path class="st0" d="M56.2,26.4c0,2.3-1.9,4.2-4.2,4.2c-2.3,0-4.2-1.9-4.2-4.2c0-2.3,1.9-4.2,4.2-4.2C54.3,22.1,56.2,24,56.2,26.4"
		/>
	<path class="st0" d="M54.9,14.9c0,1.6-1.3,2.9-2.9,2.9c-1.6,0-2.9-1.3-2.9-2.9c0-1.6,1.3-2.9,2.9-2.9C53.6,12,54.9,13.3,54.9,14.9"
		/>
	<path class="st1" d="M44.3,14.9c0,1.6-1.3,2.9-2.9,2.9c-1.6,0-2.9-1.3-2.9-2.9c0-1.6,1.3-2.9,2.9-2.9C43,12,44.3,13.3,44.3,14.9"/>
	<path class="st0" d="M33.7,14.9c0,1.6-1.3,2.9-2.9,2.9c-1.6,0-2.9-1.3-2.9-2.9c0-1.6,1.3-2.9,2.9-2.9C32.4,12,33.7,13.3,33.7,14.9"
		/>
	<path class="st0" d="M23.1,14.9c0,1.6-1.3,2.9-2.9,2.9c-1.6,0-2.9-1.3-2.9-2.9c0-1.6,1.3-2.9,2.9-2.9C21.8,12,23.1,13.3,23.1,14.9"
		/>
	<path class="st0" d="M12.5,14.9c0,1.6-1.3,2.9-2.9,2.9s-2.9-1.3-2.9-2.9C6.7,13.3,8,12,9.6,12S12.5,13.3,12.5,14.9"/>
	<path class="st1" d="M53.7,6.5c0,0.9-0.8,1.7-1.7,1.7c-0.9,0-1.7-0.8-1.7-1.7c0-0.9,0.8-1.7,1.7-1.7C52.9,4.7,53.7,5.5,53.7,6.5"/>
	<path class="st0" d="M43.1,6.5c0,0.9-0.8,1.7-1.7,1.7c-0.9,0-1.7-0.8-1.7-1.7c0-0.9,0.8-1.7,1.7-1.7C42.3,4.7,43.1,5.5,43.1,6.5"/>
	<path class="st0" d="M32.5,6.5c0,0.9-0.8,1.7-1.7,1.7c-0.9,0-1.7-0.8-1.7-1.7c0-0.9,0.8-1.7,1.7-1.7C31.8,4.7,32.5,5.5,32.5,6.5"/>
	<path class="st0" d="M21.9,6.5c0,0.9-0.8,1.7-1.7,1.7c-0.9,0-1.7-0.8-1.7-1.7c0-0.9,0.8-1.7,1.7-1.7C21.2,4.7,21.9,5.5,21.9,6.5"/>
	<path class="st0" d="M11.3,6.5c0,0.9-0.8,1.7-1.7,1.7c-0.9,0-1.7-0.8-1.7-1.7c0-0.9,0.8-1.7,1.7-1.7C10.6,4.7,11.3,5.5,11.3,6.5"/>
	<path class="st0" d="M6.7,38C6.7,36.3,8,35,9.6,35c1.6,0,2.9,1.3,2.9,2.9c0,1.6-1.3,2.9-2.9,2.9C8,40.9,6.7,39.6,6.7,38"/>
	<path class="st0" d="M17.3,38c0-1.6,1.3-2.9,2.9-2.9s2.9,1.3,2.9,2.9c0,1.6-1.3,2.9-2.9,2.9S17.3,39.6,17.3,38"/>
	<path class="st0" d="M27.9,38c0-1.6,1.3-2.9,2.9-2.9c1.6,0,2.9,1.3,2.9,2.9c0,1.6-1.3,2.9-2.9,2.9C29.2,40.9,27.9,39.6,27.9,38"/>
	<path class="st0" d="M38.5,38c0-1.6,1.3-2.9,2.9-2.9c1.6,0,2.9,1.3,2.9,2.9c0,1.6-1.3,2.9-2.9,2.9C39.8,40.9,38.5,39.6,38.5,38"/>
	<path class="st0" d="M49.1,38c0-1.6,1.3-2.9,2.9-2.9c1.6,0,2.9,1.3,2.9,2.9c0,1.6-1.3,2.9-2.9,2.9C50.4,40.9,49.1,39.6,49.1,38"/>
	<path class="st0" d="M7.9,46.4c0-0.9,0.8-1.7,1.7-1.7c0.9,0,1.7,0.8,1.7,1.7c0,0.9-0.8,1.7-1.7,1.7C8.7,48.1,7.9,47.4,7.9,46.4"/>
	<path class="st0" d="M18.5,46.4c0-0.9,0.8-1.7,1.7-1.7c0.9,0,1.7,0.8,1.7,1.7c0,0.9-0.8,1.7-1.7,1.7C19.3,48.1,18.5,47.4,18.5,46.4
		"/>
	<path class="st1" d="M29.1,46.4c0-0.9,0.8-1.7,1.7-1.7c0.9,0,1.7,0.8,1.7,1.7c0,0.9-0.8,1.7-1.7,1.7C29.9,48.1,29.1,47.4,29.1,46.4
		"/>
	<path class="st0" d="M39.7,46.4c0-0.9,0.8-1.7,1.7-1.7c0.9,0,1.7,0.8,1.7,1.7c0,0.9-0.8,1.7-1.7,1.7C40.4,48.1,39.7,47.4,39.7,46.4
		"/>
	<path class="st0" d="M50.3,46.4c0-0.9,0.8-1.7,1.7-1.7c0.9,0,1.7,0.8,1.7,1.7c0,0.9-0.8,1.7-1.7,1.7C51,48.1,50.3,47.4,50.3,46.4"
		/>
	<polygon class="st1" points="113.7,36.8 113.7,43.1 84.5,43.1 84.5,38.1 102.8,16.1 84.9,16.1 84.9,9.8 112.9,9.8 112.9,14.8 
		94.7,36.8 	"/>
	<path class="st1" d="M132.5,41.4c-2.8-1.5-4.9-3.5-6.5-6.2c-1.6-2.6-2.4-5.6-2.4-8.8c0-3.3,0.8-6.2,2.4-8.8
		c1.6-2.6,3.7-4.7,6.5-6.2c2.8-1.5,5.9-2.2,9.4-2.2c3.5,0,6.6,0.7,9.3,2.2c2.8,1.5,4.9,3.5,6.5,6.2c1.6,2.6,2.4,5.6,2.4,8.8
		c0,3.3-0.8,6.2-2.4,8.8c-1.6,2.6-3.8,4.7-6.5,6.2c-2.8,1.5-5.9,2.2-9.3,2.2C138.4,43.7,135.3,42.9,132.5,41.4 M147.2,35.7
		c1.6-0.9,2.8-2.2,3.7-3.8c0.9-1.6,1.4-3.5,1.4-5.5c0-2.1-0.5-3.9-1.4-5.5c-0.9-1.6-2.2-2.9-3.7-3.8c-1.6-0.9-3.4-1.4-5.3-1.4
		c-2,0-3.7,0.5-5.3,1.4c-1.6,0.9-2.8,2.2-3.7,3.8c-0.9,1.6-1.4,3.5-1.4,5.5c0,2.1,0.5,3.9,1.4,5.5c0.9,1.6,2.1,2.9,3.7,3.8
		c1.6,0.9,3.4,1.4,5.3,1.4C143.8,37.1,145.6,36.6,147.2,35.7"/>
	<path class="st1" d="M198.7,28.8c1.1,1.4,1.6,3.1,1.6,5.2c0,2.9-1.1,5.2-3.4,6.7c-2.3,1.6-5.6,2.4-9.9,2.4h-14.1V9.8H186
		c4.1,0,7.2,0.8,9.4,2.3c2.2,1.6,3.3,3.7,3.3,6.3c0,1.6-0.4,3.1-1.2,4.3c-0.8,1.3-1.9,2.3-3.3,3C196.1,26.4,197.6,27.4,198.7,28.8
		 M179.8,15.6v7.9h4.5c1.9,0,3.3-0.3,4.3-1c1-0.7,1.5-1.6,1.5-2.9c0-1.3-0.5-2.3-1.5-2.9c-1-0.7-2.4-1-4.3-1H179.8z M190.2,36.3
		c1-0.7,1.5-1.7,1.5-3.1c0-2.8-2-4.1-6.1-4.1h-5.8v8.2h5.8C187.6,37.3,189.1,37,190.2,36.3"/>
	<rect x="215.6" y="9.8" class="st1" width="7.7" height="33.3"/>
	<path class="st1" d="M246.5,41.4c-2.8-1.5-4.9-3.5-6.5-6.2c-1.6-2.6-2.4-5.6-2.4-8.8c0-3.3,0.8-6.2,2.4-8.8
		c1.6-2.6,3.7-4.7,6.5-6.2c2.8-1.5,5.9-2.2,9.3-2.2c3.5,0,6.6,0.7,9.3,2.2c2.8,1.5,4.9,3.5,6.5,6.2c1.6,2.6,2.4,5.6,2.4,8.8
		c0,3.3-0.8,6.2-2.4,8.8c-1.6,2.6-3.8,4.7-6.5,6.2c-2.8,1.5-5.9,2.2-9.3,2.2C252.4,43.7,249.2,42.9,246.5,41.4 M261.1,35.7
		c1.6-0.9,2.8-2.2,3.7-3.8c0.9-1.6,1.4-3.5,1.4-5.5c0-2.1-0.5-3.9-1.4-5.5c-0.9-1.6-2.2-2.9-3.7-3.8c-1.6-0.9-3.4-1.4-5.3-1.4
		c-2,0-3.7,0.5-5.3,1.4c-1.6,0.9-2.8,2.2-3.7,3.8c-0.9,1.6-1.4,3.5-1.4,5.5c0,2.1,0.5,3.9,1.4,5.5c0.9,1.6,2.1,2.9,3.7,3.8
		c1.6,0.9,3.4,1.4,5.3,1.4C257.8,37.1,259.6,36.6,261.1,35.7"/>
</g>
</svg>
