<?xml version="1.0" encoding="utf-8"?>
<!-- Generator: Adobe Illustrator 22.0.0, SVG Export Plug-In . SVG Version: 6.00 Build 0)  -->
<svg version="1.1" id="Capa_1" xmlns="http://www.w3.org/2000/svg" xmlns:xlink="http://www.w3.org/1999/xlink" x="0px" y="0px"
	 viewBox="0 0 400 400" style="enable-background:new 0 0 400 400;" xml:space="preserve">
<style type="text/css">
	.st0{fill:#FFFFFF;}
</style>
<g>
	<path class="st0" d="M266.9,363c0,5.8-4.7,10.5-10.5,10.5H37.2c-5.8,0-10.5-4.7-10.5-10.5V173.3H13.4v-26.7h13.3V37
		c0-5.8,4.7-10.5,10.5-10.5h219.2c5.8,0,10.5,4.7,10.5,10.5v28h26.8V37C293.6,16.5,277-0.2,256.4-0.2H37.2C16.7-0.2,0.1,16.5,0,37
		v326c0.1,20.5,16.7,37.2,37.2,37.2h219.3c20.5,0,37.1-16.7,37.2-37.2v-29h-26.8V363z"/>
	<rect x="26.7" y="146.6" class="st0" width="131.7" height="26.7"/>
	<rect x="13.4" y="146.6" class="st0" width="13.3" height="26.7"/>
	<path class="st0" d="M60.3,245.8c-7.4,0-13.4,6-13.3,13.4v26.7c0,7.3,5.9,13.3,13.3,13.3c7.4,0,13.4-5.9,13.4-13.3v-26.7
		C73.7,251.8,67.7,245.8,60.3,245.8z"/>
	<path class="st0" d="M60.3,56.8c-7.4,0-13.4,5.9-13.3,13.3v26.7c0,7.3,5.9,13.3,13.3,13.3c7.4,0,13.4-5.9,13.4-13.3V70.1
		C73.7,62.8,67.7,56.8,60.3,56.8z"/>
	<polygon class="st0" points="257.5,300.1 266.9,309.5 266.9,290.7 	"/>
	<polygon class="st0" points="341.6,185.9 293.7,185.9 293.7,216.1 341.6,216.1 293.7,263.9 293.7,306.5 399.2,201 293.7,95.5 
		293.7,138.1 	"/>
	<polygon class="st0" points="266.9,111.3 266.9,92.5 257.5,101.9 	"/>
	<rect x="158.4" y="185.9" class="st0" width="108.5" height="30.2"/>
	<polygon class="st0" points="266.9,92.5 266.9,111.3 293.7,138.1 293.7,95.5 278.8,80.6 	"/>
	<polygon class="st0" points="266.9,290.7 266.9,309.5 278.8,321.4 293.7,306.5 293.7,263.9 	"/>
	<rect x="266.9" y="185.9" class="st0" width="26.8" height="30.2"/>
</g>
</svg>
