<?xml version="1.0" encoding="utf-8"?>
<!-- Generator: Adobe Illustrator 22.0.0, SVG Export Plug-In . SVG Version: 6.00 Build 0)  -->
<svg version="1.1" id="Capa_1" xmlns="http://www.w3.org/2000/svg" xmlns:xlink="http://www.w3.org/1999/xlink" x="0px" y="0px"
	 viewBox="0 0 400 400" style="enable-background:new 0 0 400 400;" xml:space="preserve">
<style type="text/css">
	.st0{fill:#FFFFFF;}
</style>
<g>
	<path class="st0" d="M267,363c0,5.8-4.7,10.5-10.5,10.5H37.2c0,0,0,0,0,0c-5.8,0-10.5-4.7-10.5-10.5V173.3H13.3v-26.7h13.4V37
		c0-5.8,4.7-10.5,10.5-10.5h219.2c5.8,0,10.5,4.7,10.5,10.5v28h26.7V37C293.6,16.5,277-0.2,256.5-0.3H37.2C16.7-0.2,0.1,16.5,0,37
		v326c0.1,20.5,16.7,37.2,37.2,37.2h219.2c20.5-0.1,37.2-16.7,37.2-37.2v-29H267V363z"/>
	<rect x="26.7" y="146.6" class="st0" width="131.7" height="26.7"/>
	<rect x="13.3" y="146.6" class="st0" width="13.4" height="26.7"/>
	<path class="st0" d="M60.3,245.8c-7.4,0-13.3,6-13.3,13.4v26.7c0,7.4,6,13.4,13.3,13.4s13.4-6,13.4-13.4v-26.7
		C73.6,251.8,67.7,245.8,60.3,245.8z"/>
	<path class="st0" d="M60.3,56.8c-7.4,0-13.3,6-13.3,13.4v26.7c0,7.4,6,13.3,13.3,13.3s13.4-6,13.4-13.3V70.1
		C73.6,62.7,67.7,56.8,60.3,56.8z"/>
	<g>
		<polygon class="st0" points="216.1,216.1 267,216.1 267,185.9 216.1,185.9 228.7,173.3 186.1,173.3 158.4,201 267,309.6 267,267 
					"/>
	</g>
	<g>
		<rect x="293.7" y="185.9" class="st0" width="105.5" height="30.1"/>
	</g>
	<g>
		<polygon class="st0" points="300.1,101.9 293.7,95.4 293.7,108.3 		"/>
	</g>
	<g>
		<polygon class="st0" points="300.1,300.1 293.7,293.7 293.7,306.6 		"/>
	</g>
	<g>
		<polygon class="st0" points="255.4,146.6 267,135 267,92.4 212.8,146.6 		"/>
	</g>
	<g>
		<rect x="267" y="185.9" class="st0" width="26.7" height="30.1"/>
	</g>
	<g>
		<polygon class="st0" points="267,309.6 278.8,321.4 293.7,306.6 293.7,293.7 267,267 		"/>
	</g>
	<g>
		<polygon class="st0" points="267,92.4 267,135 293.7,108.3 293.7,95.4 278.8,80.6 		"/>
	</g>
	<g>
		<polygon class="st0" points="212.8,146.6 186.1,173.3 228.7,173.3 255.4,146.6 		"/>
	</g>
</g>
</svg>
