<?xml version="1.0" encoding="utf-8"?>
<!-- Generator: Adobe Illustrator 22.0.0, SVG Export Plug-In . SVG Version: 6.00 Build 0)  -->
<svg version="1.1" id="Layer_1" xmlns="http://www.w3.org/2000/svg" xmlns:xlink="http://www.w3.org/1999/xlink" x="0px" y="0px"
	 viewBox="0 0 300 241.4" style="enable-background:new 0 0 300 241.4;" xml:space="preserve">
<style type="text/css">
	.st0{clip-path:url(#SVGID_2_);fill:#74BECD;}
	.st1{clip-path:url(#SVGID_2_);fill:#173D5C;}
	.st2{clip-path:url(#SVGID_2_);fill:#9C9D9D;}
	.st3{clip-path:url(#SVGID_2_);fill:#3B3B3A;}
	.st4{clip-path:url(#SVGID_2_);fill:#FFFFFF;}
</style>
<g>
	<defs>
		<rect id="SVGID_1_" x="9" y="7.5" width="283.1" height="227.5"/>
	</defs>
	<clipPath id="SVGID_2_">
		<use xlink:href="#SVGID_1_"  style="overflow:visible;"/>
	</clipPath>
	<path class="st0" d="M104.7,67.8c0,6.5-5.3,11.8-11.8,11.8c-6.5,0-11.8-5.3-11.8-11.8C81,61.3,86.3,56,92.9,56
		C99.4,56,104.7,61.3,104.7,67.8"/>
	<path class="st1" d="M134.2,67.8c0,6.5-5.3,11.8-11.8,11.8c-6.5,0-11.8-5.3-11.8-11.8c0-6.5,5.3-11.8,11.8-11.8
		C129,56,134.2,61.3,134.2,67.8"/>
	<path class="st0" d="M163.8,67.8c0,6.5-5.3,11.8-11.8,11.8c-6.5,0-11.8-5.3-11.8-11.8c0-6.5,5.3-11.8,11.8-11.8
		C158.5,56,163.8,61.3,163.8,67.8"/>
	<path class="st0" d="M193.2,67.8c0,6.5-5.3,11.8-11.8,11.8c-6.5,0-11.8-5.3-11.8-11.8c0-6.5,5.3-11.8,11.8-11.8
		C187.9,56,193.2,61.3,193.2,67.8"/>
	<path class="st0" d="M222.7,67.8c0,6.5-5.3,11.8-11.8,11.8c-6.5,0-11.8-5.3-11.8-11.8c0-6.5,5.3-11.8,11.8-11.8
		C217.4,56,222.7,61.3,222.7,67.8"/>
	<path class="st0" d="M219,35.9c0,4.5-3.6,8.1-8.1,8.1c-4.5,0-8.1-3.6-8.1-8.1c0-4.5,3.6-8.1,8.1-8.1C215.4,27.8,219,31.4,219,35.9"
		/>
	<path class="st1" d="M189.5,35.9c0,4.5-3.6,8.1-8.1,8.1c-4.5,0-8.1-3.6-8.1-8.1c0-4.5,3.6-8.1,8.1-8.1
		C185.9,27.8,189.5,31.4,189.5,35.9"/>
	<path class="st0" d="M160,35.9c0,4.5-3.6,8.1-8.1,8.1c-4.5,0-8.1-3.6-8.1-8.1c0-4.5,3.6-8.1,8.1-8.1C156.3,27.8,160,31.4,160,35.9"
		/>
	<path class="st0" d="M130.5,35.9c0,4.5-3.6,8.1-8.1,8.1c-4.5,0-8.1-3.6-8.1-8.1c0-4.5,3.6-8.1,8.1-8.1
		C126.8,27.8,130.5,31.4,130.5,35.9"/>
	<path class="st0" d="M100.9,35.9c0,4.5-3.6,8.1-8.1,8.1c-4.5,0-8.1-3.6-8.1-8.1c0-4.5,3.6-8.1,8.1-8.1
		C97.3,27.8,100.9,31.4,100.9,35.9"/>
	<path class="st1" d="M215.7,12.3c0,2.6-2.1,4.8-4.8,4.8c-2.6,0-4.8-2.1-4.8-4.8c0-2.6,2.1-4.8,4.8-4.8
		C213.5,7.5,215.7,9.6,215.7,12.3"/>
	<path class="st0" d="M186.2,12.3c0,2.6-2.1,4.8-4.8,4.8c-2.6,0-4.8-2.1-4.8-4.8c0-2.6,2.1-4.8,4.8-4.8
		C184,7.5,186.2,9.6,186.2,12.3"/>
	<path class="st0" d="M156.7,12.3c0,2.6-2.1,4.8-4.8,4.8c-2.6,0-4.8-2.1-4.8-4.8c0-2.6,2.1-4.8,4.8-4.8
		C154.5,7.5,156.7,9.6,156.7,12.3"/>
	<path class="st0" d="M127.1,12.3c0,2.6-2.1,4.8-4.8,4.8c-2.6,0-4.8-2.1-4.8-4.8c0-2.6,2.1-4.8,4.8-4.8
		C125,7.5,127.1,9.6,127.1,12.3"/>
	<path class="st0" d="M97.6,12.3c0,2.6-2.1,4.8-4.8,4.8c-2.6,0-4.8-2.1-4.8-4.8c0-2.6,2.1-4.8,4.8-4.8C95.5,7.5,97.6,9.6,97.6,12.3"
		/>
	<path class="st0" d="M84.8,100.1c0-4.5,3.6-8.1,8.1-8.1c4.5,0,8.1,3.6,8.1,8.1c0,4.5-3.6,8.1-8.1,8.1
		C88.4,108.1,84.8,104.5,84.8,100.1"/>
	<path class="st0" d="M114.3,100.1c0-4.5,3.6-8.1,8.1-8.1c4.5,0,8.1,3.6,8.1,8.1c0,4.5-3.6,8.1-8.1,8.1
		C117.9,108.1,114.3,104.5,114.3,100.1"/>
	<path class="st0" d="M143.8,100.1c0-4.5,3.6-8.1,8.1-8.1c4.5,0,8.1,3.6,8.1,8.1c0,4.5-3.6,8.1-8.1,8.1
		C147.4,108.1,143.8,104.5,143.8,100.1"/>
	<path class="st0" d="M173.3,100.1c0-4.5,3.6-8.1,8.1-8.1c4.5,0,8.1,3.6,8.1,8.1c0,4.5-3.6,8.1-8.1,8.1
		C176.9,108.1,173.3,104.5,173.3,100.1"/>
	<path class="st0" d="M202.8,100.1c0-4.5,3.6-8.1,8.1-8.1c4.5,0,8.1,3.6,8.1,8.1c0,4.5-3.6,8.1-8.1,8.1
		C206.4,108.1,202.8,104.5,202.8,100.1"/>
	<path class="st0" d="M88.1,123.7c0-2.6,2.1-4.8,4.8-4.8c2.6,0,4.8,2.1,4.8,4.8c0,2.6-2.1,4.8-4.8,4.8
		C90.2,128.4,88.1,126.3,88.1,123.7"/>
	<path class="st0" d="M117.6,123.7c0-2.6,2.1-4.8,4.8-4.8c2.6,0,4.8,2.1,4.8,4.8c0,2.6-2.1,4.8-4.8,4.8
		C119.7,128.4,117.6,126.3,117.6,123.7"/>
	<path class="st1" d="M147.1,123.7c0-2.6,2.1-4.8,4.8-4.8c2.6,0,4.8,2.1,4.8,4.8c0,2.6-2.1,4.8-4.8,4.8
		C149.2,128.4,147.1,126.3,147.1,123.7"/>
	<path class="st0" d="M176.6,123.7c0-2.6,2.1-4.8,4.8-4.8c2.6,0,4.8,2.1,4.8,4.8c0,2.6-2.1,4.8-4.8,4.8
		C178.8,128.4,176.6,126.3,176.6,123.7"/>
	<path class="st0" d="M206.1,123.7c0-2.6,2.1-4.8,4.8-4.8c2.6,0,4.8,2.1,4.8,4.8c0,2.6-2.1,4.8-4.8,4.8
		C208.3,128.4,206.1,126.3,206.1,123.7"/>
	<polygon class="st1" points="54.8,220.1 54.8,229.3 11.7,229.3 11.7,222 38.7,189.4 12.3,189.4 12.3,180.1 53.7,180.1 53.7,187.5 
		26.8,220.1 	"/>
	<path class="st1" d="M82.7,226.9c-4.1-2.2-7.3-5.2-9.6-9.1c-2.3-3.9-3.5-8.2-3.5-13.1c0-4.8,1.2-9.2,3.5-13.1
		c2.3-3.9,5.5-6.9,9.6-9.1c4.1-2.2,8.7-3.3,13.8-3.3c5.1,0,9.7,1.1,13.8,3.3c4.1,2.2,7.3,5.2,9.6,9.1c2.3,3.9,3.5,8.2,3.5,13.1
		c0,4.8-1.2,9.2-3.5,13.1c-2.3,3.9-5.6,6.9-9.6,9.1c-4.1,2.2-8.7,3.3-13.8,3.3C91.4,230.2,86.8,229.1,82.7,226.9 M104.4,218.5
		c2.3-1.3,4.2-3.2,5.5-5.6c1.3-2.4,2-5.1,2-8.2c0-3-0.7-5.8-2-8.2c-1.3-2.4-3.2-4.3-5.5-5.6c-2.3-1.3-5-2-7.9-2
		c-2.9,0-5.5,0.7-7.9,2c-2.3,1.3-4.2,3.2-5.5,5.6c-1.3,2.4-2,5.1-2,8.2c0,3,0.7,5.8,2,8.2c1.3,2.4,3.2,4.3,5.5,5.6
		c2.3,1.3,5,2,7.9,2C99.4,220.5,102,219.8,104.4,218.5"/>
	<path class="st1" d="M180.6,208.2c1.6,2.1,2.4,4.7,2.4,7.7c0,4.3-1.7,7.6-5,10c-3.4,2.3-8.2,3.5-14.7,3.5h-20.8v-49.3h19.4
		c6,0,10.6,1.2,13.8,3.4c3.2,2.3,4.8,5.4,4.8,9.4c0,2.4-0.6,4.5-1.7,6.4c-1.2,1.9-2.8,3.4-4.8,4.4
		C176.8,204.6,179,206.1,180.6,208.2 M152.6,188.7v11.6h6.6c2.8,0,4.9-0.5,6.4-1.5c1.5-1,2.2-2.4,2.2-4.4c0-1.9-0.7-3.4-2.2-4.3
		c-1.5-1-3.6-1.4-6.4-1.4H152.6z M168,219.3c1.5-1,2.3-2.5,2.3-4.6c0-4.1-3-6.1-9.1-6.1h-8.6v12.2h8.6
		C164.2,220.8,166.5,220.3,168,219.3"/>
	<rect x="205.6" y="180.1" class="st1" width="11.4" height="49.3"/>
	<path class="st1" d="M251.2,226.9c-4.1-2.2-7.3-5.2-9.6-9.1c-2.3-3.9-3.5-8.2-3.5-13.1c0-4.8,1.2-9.2,3.5-13.1
		c2.3-3.9,5.5-6.9,9.6-9.1c4.1-2.2,8.7-3.3,13.8-3.3c5.1,0,9.7,1.1,13.8,3.3c4.1,2.2,7.3,5.2,9.6,9.1c2.3,3.9,3.5,8.2,3.5,13.1
		c0,4.8-1.2,9.2-3.5,13.1c-2.3,3.9-5.6,6.9-9.6,9.1c-4.1,2.2-8.7,3.3-13.8,3.3C260,230.2,255.4,229.1,251.2,226.9 M273,218.5
		c2.3-1.3,4.2-3.2,5.5-5.6c1.3-2.4,2-5.1,2-8.2c0-3-0.7-5.8-2-8.2c-1.3-2.4-3.2-4.3-5.5-5.6c-2.3-1.3-5-2-7.9-2
		c-2.9,0-5.5,0.7-7.9,2c-2.3,1.3-4.2,3.2-5.5,5.6c-1.3,2.4-2,5.1-2,8.2c0,3,0.7,5.8,2,8.2c1.3,2.4,3.2,4.3,5.5,5.6
		c2.3,1.3,5,2,7.9,2C268,220.5,270.6,219.8,273,218.5"/>
	<path class="st2" d="M104.7,361.6c0,6.5-5.3,11.8-11.8,11.8c-6.5,0-11.8-5.3-11.8-11.8c0-6.5,5.3-11.8,11.8-11.8
		C99.4,349.8,104.7,355.1,104.7,361.6"/>
	<path class="st3" d="M134.2,361.6c0,6.5-5.3,11.8-11.8,11.8c-6.5,0-11.8-5.3-11.8-11.8c0-6.5,5.3-11.8,11.8-11.8
		C129,349.8,134.2,355.1,134.2,361.6"/>
	<path class="st2" d="M163.8,361.6c0,6.5-5.3,11.8-11.8,11.8c-6.5,0-11.8-5.3-11.8-11.8c0-6.5,5.3-11.8,11.8-11.8
		C158.5,349.8,163.8,355.1,163.8,361.6"/>
	<path class="st2" d="M193.2,361.6c0,6.5-5.3,11.8-11.8,11.8c-6.5,0-11.8-5.3-11.8-11.8c0-6.5,5.3-11.8,11.8-11.8
		C187.9,349.8,193.2,355.1,193.2,361.6"/>
	<path class="st2" d="M222.7,361.6c0,6.5-5.3,11.8-11.8,11.8c-6.5,0-11.8-5.3-11.8-11.8c0-6.5,5.3-11.8,11.8-11.8
		C217.4,349.8,222.7,355.1,222.7,361.6"/>
	<path class="st2" d="M219,329.7c0,4.5-3.6,8.1-8.1,8.1c-4.5,0-8.1-3.6-8.1-8.1c0-4.5,3.6-8.1,8.1-8.1
		C215.4,321.6,219,325.2,219,329.7"/>
	<path class="st3" d="M189.5,329.7c0,4.5-3.6,8.1-8.1,8.1c-4.5,0-8.1-3.6-8.1-8.1c0-4.5,3.6-8.1,8.1-8.1
		C185.9,321.6,189.5,325.2,189.5,329.7"/>
	<path class="st2" d="M160,329.7c0,4.5-3.6,8.1-8.1,8.1c-4.5,0-8.1-3.6-8.1-8.1c0-4.5,3.6-8.1,8.1-8.1
		C156.3,321.6,160,325.2,160,329.7"/>
	<path class="st2" d="M130.5,329.7c0,4.5-3.6,8.1-8.1,8.1c-4.5,0-8.1-3.6-8.1-8.1c0-4.5,3.6-8.1,8.1-8.1
		C126.8,321.6,130.5,325.2,130.5,329.7"/>
	<path class="st2" d="M100.9,329.7c0,4.5-3.6,8.1-8.1,8.1c-4.5,0-8.1-3.6-8.1-8.1c0-4.5,3.6-8.1,8.1-8.1
		C97.3,321.6,100.9,325.2,100.9,329.7"/>
	<path class="st3" d="M215.7,306.1c0,2.6-2.1,4.8-4.8,4.8c-2.6,0-4.8-2.1-4.8-4.8s2.1-4.8,4.8-4.8
		C213.5,301.3,215.7,303.4,215.7,306.1"/>
	<path class="st2" d="M186.2,306.1c0,2.6-2.1,4.8-4.8,4.8c-2.6,0-4.8-2.1-4.8-4.8s2.1-4.8,4.8-4.8
		C184,301.3,186.2,303.4,186.2,306.1"/>
	<path class="st2" d="M156.7,306.1c0,2.6-2.1,4.8-4.8,4.8c-2.6,0-4.8-2.1-4.8-4.8s2.1-4.8,4.8-4.8
		C154.5,301.3,156.7,303.4,156.7,306.1"/>
	<path class="st2" d="M127.1,306.1c0,2.6-2.1,4.8-4.8,4.8c-2.6,0-4.8-2.1-4.8-4.8s2.1-4.8,4.8-4.8
		C125,301.3,127.1,303.4,127.1,306.1"/>
	<path class="st2" d="M97.6,306.1c0,2.6-2.1,4.8-4.8,4.8c-2.6,0-4.8-2.1-4.8-4.8s2.1-4.8,4.8-4.8C95.5,301.3,97.6,303.4,97.6,306.1"
		/>
	<path class="st2" d="M84.8,393.9c0-4.5,3.6-8.1,8.1-8.1c4.5,0,8.1,3.6,8.1,8.1s-3.6,8.1-8.1,8.1C88.4,401.9,84.8,398.3,84.8,393.9"
		/>
	<path class="st2" d="M114.3,393.9c0-4.5,3.6-8.1,8.1-8.1c4.5,0,8.1,3.6,8.1,8.1s-3.6,8.1-8.1,8.1
		C117.9,401.9,114.3,398.3,114.3,393.9"/>
	<path class="st2" d="M143.8,393.9c0-4.5,3.6-8.1,8.1-8.1c4.5,0,8.1,3.6,8.1,8.1s-3.6,8.1-8.1,8.1
		C147.4,401.9,143.8,398.3,143.8,393.9"/>
	<path class="st2" d="M173.3,393.9c0-4.5,3.6-8.1,8.1-8.1c4.5,0,8.1,3.6,8.1,8.1s-3.6,8.1-8.1,8.1
		C176.9,401.9,173.3,398.3,173.3,393.9"/>
	<path class="st2" d="M202.8,393.9c0-4.5,3.6-8.1,8.1-8.1c4.5,0,8.1,3.6,8.1,8.1s-3.6,8.1-8.1,8.1
		C206.4,401.9,202.8,398.3,202.8,393.9"/>
	<path class="st2" d="M88.1,417.5c0-2.6,2.1-4.8,4.8-4.8c2.6,0,4.8,2.1,4.8,4.8c0,2.6-2.1,4.8-4.8,4.8
		C90.2,422.2,88.1,420.1,88.1,417.5"/>
	<path class="st2" d="M117.6,417.5c0-2.6,2.1-4.8,4.8-4.8c2.6,0,4.8,2.1,4.8,4.8c0,2.6-2.1,4.8-4.8,4.8
		C119.7,422.2,117.6,420.1,117.6,417.5"/>
	<path class="st3" d="M147.1,417.5c0-2.6,2.1-4.8,4.8-4.8c2.6,0,4.8,2.1,4.8,4.8c0,2.6-2.1,4.8-4.8,4.8
		C149.2,422.2,147.1,420.1,147.1,417.5"/>
	<path class="st2" d="M176.6,417.5c0-2.6,2.1-4.8,4.8-4.8c2.6,0,4.8,2.1,4.8,4.8c0,2.6-2.1,4.8-4.8,4.8
		C178.8,422.2,176.6,420.1,176.6,417.5"/>
	<path class="st2" d="M206.1,417.5c0-2.6,2.1-4.8,4.8-4.8c2.6,0,4.8,2.1,4.8,4.8c0,2.6-2.1,4.8-4.8,4.8
		C208.3,422.2,206.1,420.1,206.1,417.5"/>
	<polygon class="st3" points="54.8,513.9 54.8,523.1 11.7,523.1 11.7,515.8 38.7,483.2 12.3,483.2 12.3,473.9 53.7,473.9 
		53.7,481.3 26.8,513.9 	"/>
	<path class="st3" d="M82.7,520.7c-4.1-2.2-7.3-5.2-9.6-9.1c-2.3-3.9-3.5-8.2-3.5-13.1c0-4.8,1.2-9.2,3.5-13.1
		c2.3-3.9,5.5-6.9,9.6-9.1c4.1-2.2,8.7-3.3,13.8-3.3c5.1,0,9.7,1.1,13.8,3.3c4.1,2.2,7.3,5.2,9.6,9.1c2.3,3.9,3.5,8.2,3.5,13.1
		c0,4.8-1.2,9.2-3.5,13.1c-2.3,3.9-5.6,6.9-9.6,9.1c-4.1,2.2-8.7,3.3-13.8,3.3C91.4,524,86.8,522.9,82.7,520.7 M104.4,512.3
		c2.3-1.3,4.2-3.2,5.5-5.6c1.3-2.4,2-5.1,2-8.2c0-3-0.7-5.8-2-8.2c-1.3-2.4-3.2-4.3-5.5-5.6c-2.3-1.3-5-2-7.9-2
		c-2.9,0-5.5,0.7-7.9,2c-2.3,1.3-4.2,3.2-5.5,5.6c-1.3,2.4-2,5.1-2,8.2c0,3,0.7,5.8,2,8.2c1.3,2.4,3.2,4.3,5.5,5.6
		c2.3,1.3,5,2,7.9,2C99.4,514.3,102,513.6,104.4,512.3"/>
	<path class="st3" d="M180.6,502c1.6,2.1,2.4,4.7,2.4,7.7c0,4.3-1.7,7.6-5,10c-3.4,2.3-8.2,3.5-14.7,3.5h-20.8v-49.3h19.4
		c6,0,10.6,1.2,13.8,3.4c3.2,2.3,4.8,5.4,4.8,9.4c0,2.4-0.6,4.5-1.7,6.4c-1.2,1.9-2.8,3.4-4.8,4.4C176.8,498.4,179,499.9,180.6,502
		 M152.6,482.5v11.6h6.6c2.8,0,4.9-0.5,6.4-1.5c1.5-1,2.2-2.4,2.2-4.4c0-1.9-0.7-3.4-2.2-4.3c-1.5-1-3.6-1.4-6.4-1.4H152.6z
		 M168,513.1c1.5-1,2.3-2.5,2.3-4.6c0-4.1-3-6.1-9.1-6.1h-8.6v12.2h8.6C164.2,514.6,166.5,514.1,168,513.1"/>
	<rect x="205.6" y="473.9" class="st3" width="11.4" height="49.3"/>
	<path class="st3" d="M251.2,520.7c-4.1-2.2-7.3-5.2-9.6-9.1c-2.3-3.9-3.5-8.2-3.5-13.1c0-4.8,1.2-9.2,3.5-13.1
		c2.3-3.9,5.5-6.9,9.6-9.1c4.1-2.2,8.7-3.3,13.8-3.3c5.1,0,9.7,1.1,13.8,3.3c4.1,2.2,7.3,5.2,9.6,9.1c2.3,3.9,3.5,8.2,3.5,13.1
		c0,4.8-1.2,9.2-3.5,13.1c-2.3,3.9-5.6,6.9-9.6,9.1c-4.1,2.2-8.7,3.3-13.8,3.3C260,524,255.4,522.9,251.2,520.7 M273,512.3
		c2.3-1.3,4.2-3.2,5.5-5.6c1.3-2.4,2-5.1,2-8.2c0-3-0.7-5.8-2-8.2c-1.3-2.4-3.2-4.3-5.5-5.6c-2.3-1.3-5-2-7.9-2
		c-2.9,0-5.5,0.7-7.9,2c-2.3,1.3-4.2,3.2-5.5,5.6c-1.3,2.4-2,5.1-2,8.2c0,3,0.7,5.8,2,8.2c1.3,2.4,3.2,4.3,5.5,5.6
		c2.3,1.3,5,2,7.9,2C268,514.3,270.6,513.6,273,512.3"/>
	<path class="st0" d="M-465.5,498.4c0,3.5-2.8,6.3-6.3,6.3c-3.5,0-6.3-2.8-6.3-6.3c0-3.5,2.8-6.3,6.3-6.3
		C-468.3,492.2-465.5,495-465.5,498.4"/>
	<path class="st1" d="M-449.8,498.4c0,3.5-2.8,6.3-6.3,6.3c-3.5,0-6.3-2.8-6.3-6.3c0-3.5,2.8-6.3,6.3-6.3
		C-452.6,492.2-449.8,495-449.8,498.4"/>
	<path class="st0" d="M-434.1,498.4c0,3.5-2.8,6.3-6.3,6.3c-3.5,0-6.3-2.8-6.3-6.3c0-3.5,2.8-6.3,6.3-6.3
		C-436.9,492.2-434.1,495-434.1,498.4"/>
	<path class="st0" d="M-418.5,498.4c0,3.5-2.8,6.3-6.3,6.3c-3.5,0-6.3-2.8-6.3-6.3c0-3.5,2.8-6.3,6.3-6.3
		C-421.3,492.2-418.5,495-418.5,498.4"/>
	<path class="st0" d="M-402.8,498.4c0,3.5-2.8,6.3-6.3,6.3c-3.5,0-6.3-2.8-6.3-6.3c0-3.5,2.8-6.3,6.3-6.3
		C-405.6,492.2-402.8,495-402.8,498.4"/>
	<path class="st0" d="M-404.8,481.5c0,2.4-1.9,4.3-4.3,4.3c-2.4,0-4.3-1.9-4.3-4.3c0-2.4,1.9-4.3,4.3-4.3
		C-406.7,477.2-404.8,479.1-404.8,481.5"/>
	<path class="st1" d="M-420.5,481.5c0,2.4-1.9,4.3-4.3,4.3c-2.4,0-4.3-1.9-4.3-4.3c0-2.4,1.9-4.3,4.3-4.3
		C-422.4,477.2-420.5,479.1-420.5,481.5"/>
	<path class="st0" d="M-436.1,481.5c0,2.4-1.9,4.3-4.3,4.3c-2.4,0-4.3-1.9-4.3-4.3c0-2.4,1.9-4.3,4.3-4.3
		C-438,477.2-436.1,479.1-436.1,481.5"/>
	<path class="st0" d="M-451.8,481.5c0,2.4-1.9,4.3-4.3,4.3c-2.4,0-4.3-1.9-4.3-4.3c0-2.4,1.9-4.3,4.3-4.3
		C-453.7,477.2-451.8,479.1-451.8,481.5"/>
	<path class="st0" d="M-467.4,481.5c0,2.4-1.9,4.3-4.3,4.3c-2.4,0-4.3-1.9-4.3-4.3c0-2.4,1.9-4.3,4.3-4.3
		C-469.4,477.2-467.4,479.1-467.4,481.5"/>
	<path class="st1" d="M-406.6,469c0,1.4-1.1,2.5-2.5,2.5c-1.4,0-2.5-1.1-2.5-2.5c0-1.4,1.1-2.5,2.5-2.5
		C-407.7,466.4-406.6,467.6-406.6,469"/>
	<path class="st0" d="M-422.2,469c0,1.4-1.1,2.5-2.5,2.5c-1.4,0-2.5-1.1-2.5-2.5c0-1.4,1.1-2.5,2.5-2.5
		C-423.4,466.4-422.2,467.6-422.2,469"/>
	<path class="st0" d="M-437.9,469c0,1.4-1.1,2.5-2.5,2.5c-1.4,0-2.5-1.1-2.5-2.5c0-1.4,1.1-2.5,2.5-2.5
		C-439,466.4-437.9,467.6-437.9,469"/>
	<path class="st0" d="M-453.5,469c0,1.4-1.1,2.5-2.5,2.5c-1.4,0-2.5-1.1-2.5-2.5c0-1.4,1.1-2.5,2.5-2.5
		C-454.7,466.4-453.5,467.6-453.5,469"/>
	<path class="st0" d="M-469.2,469c0,1.4-1.1,2.5-2.5,2.5c-1.4,0-2.5-1.1-2.5-2.5c0-1.4,1.1-2.5,2.5-2.5
		C-470.3,466.4-469.2,467.6-469.2,469"/>
	<path class="st0" d="M-476,515.5c0-2.4,1.9-4.3,4.3-4.3c2.4,0,4.3,1.9,4.3,4.3c0,2.4-1.9,4.3-4.3,4.3
		C-474.1,519.8-476,517.9-476,515.5"/>
	<path class="st0" d="M-460.4,515.5c0-2.4,1.9-4.3,4.3-4.3c2.4,0,4.3,1.9,4.3,4.3c0,2.4-1.9,4.3-4.3,4.3
		C-458.5,519.8-460.4,517.9-460.4,515.5"/>
	<path class="st0" d="M-444.7,515.5c0-2.4,1.9-4.3,4.3-4.3c2.4,0,4.3,1.9,4.3,4.3c0,2.4-1.9,4.3-4.3,4.3
		C-442.8,519.8-444.7,517.9-444.7,515.5"/>
	<path class="st0" d="M-429.1,515.5c0-2.4,1.9-4.3,4.3-4.3c2.4,0,4.3,1.9,4.3,4.3c0,2.4-1.9,4.3-4.3,4.3
		C-427.1,519.8-429.1,517.9-429.1,515.5"/>
	<path class="st0" d="M-413.4,515.5c0-2.4,1.9-4.3,4.3-4.3c2.4,0,4.3,1.9,4.3,4.3c0,2.4-1.9,4.3-4.3,4.3
		C-411.5,519.8-413.4,517.9-413.4,515.5"/>
	<path class="st0" d="M-474.3,528.1c0-1.4,1.1-2.5,2.5-2.5c1.4,0,2.5,1.1,2.5,2.5c0,1.4-1.1,2.5-2.5,2.5
		C-473.1,530.6-474.3,529.5-474.3,528.1"/>
	<path class="st0" d="M-458.6,528.1c0-1.4,1.1-2.5,2.5-2.5c1.4,0,2.5,1.1,2.5,2.5c0,1.4-1.1,2.5-2.5,2.5
		C-457.5,530.6-458.6,529.5-458.6,528.1"/>
	<path class="st1" d="M-443,528.1c0-1.4,1.1-2.5,2.5-2.5c1.4,0,2.5,1.1,2.5,2.5c0,1.4-1.1,2.5-2.5,2.5
		C-441.8,530.6-443,529.5-443,528.1"/>
	<path class="st0" d="M-427.3,528.1c0-1.4,1.1-2.5,2.5-2.5c1.4,0,2.5,1.1,2.5,2.5c0,1.4-1.1,2.5-2.5,2.5
		C-426.2,530.6-427.3,529.5-427.3,528.1"/>
	<path class="st0" d="M-411.6,528.1c0-1.4,1.1-2.5,2.5-2.5c1.4,0,2.5,1.1,2.5,2.5c0,1.4-1.1,2.5-2.5,2.5
		C-410.5,530.6-411.6,529.5-411.6,528.1"/>
	<polygon class="st1" points="-317.9,513.9 -317.9,523.1 -360.9,523.1 -360.9,515.8 -333.9,483.2 -360.4,483.2 -360.4,473.9 
		-318.9,473.9 -318.9,481.3 -345.9,513.9 	"/>
	<path class="st1" d="M-290,520.7c-4.1-2.2-7.3-5.2-9.6-9.1c-2.3-3.9-3.5-8.2-3.5-13.1c0-4.8,1.2-9.2,3.5-13.1
		c2.3-3.9,5.5-6.9,9.6-9.1c4.1-2.2,8.7-3.3,13.8-3.3c5.1,0,9.7,1.1,13.8,3.3c4.1,2.2,7.3,5.2,9.6,9.1c2.3,3.9,3.5,8.2,3.5,13.1
		c0,4.8-1.2,9.2-3.5,13.1c-2.3,3.9-5.6,6.9-9.6,9.1c-4.1,2.2-8.7,3.3-13.8,3.3C-281.3,524-285.9,522.9-290,520.7 M-268.3,512.3
		c2.3-1.3,4.2-3.2,5.5-5.6c1.3-2.4,2-5.1,2-8.2c0-3-0.7-5.8-2-8.2c-1.3-2.4-3.2-4.3-5.5-5.6c-2.3-1.3-5-2-7.9-2
		c-2.9,0-5.5,0.7-7.9,2c-2.3,1.3-4.2,3.2-5.5,5.6c-1.3,2.4-2,5.1-2,8.2c0,3,0.7,5.8,2,8.2c1.3,2.4,3.2,4.3,5.5,5.6
		c2.3,1.3,5,2,7.9,2C-273.2,514.3-270.6,513.6-268.3,512.3"/>
	<path class="st1" d="M-192.1,502c1.6,2.1,2.4,4.7,2.4,7.7c0,4.3-1.7,7.6-5,10c-3.4,2.3-8.2,3.5-14.7,3.5h-20.8v-49.3h19.4
		c6,0,10.6,1.2,13.8,3.4c3.2,2.3,4.8,5.4,4.8,9.4c0,2.4-0.6,4.5-1.7,6.4c-1.1,1.9-2.8,3.4-4.8,4.4
		C-195.9,498.4-193.7,499.9-192.1,502 M-220.1,482.5v11.6h6.6c2.8,0,4.9-0.5,6.4-1.5c1.5-1,2.2-2.4,2.2-4.4c0-1.9-0.7-3.4-2.2-4.3
		c-1.5-1-3.6-1.4-6.4-1.4H-220.1z M-204.7,513.1c1.5-1,2.3-2.5,2.3-4.6c0-4.1-3-6.1-9.1-6.1h-8.6v12.2h8.6
		C-208.5,514.6-206.2,514.1-204.7,513.1"/>
	<rect x="-167.1" y="473.9" class="st1" width="11.4" height="49.3"/>
	<path class="st1" d="M-121.4,520.7c-4.1-2.2-7.3-5.2-9.6-9.1c-2.3-3.9-3.5-8.2-3.5-13.1c0-4.8,1.2-9.2,3.5-13.1
		c2.3-3.9,5.5-6.9,9.6-9.1c4.1-2.2,8.7-3.3,13.8-3.3c5.1,0,9.7,1.1,13.8,3.3c4.1,2.2,7.3,5.2,9.6,9.1c2.3,3.9,3.5,8.2,3.5,13.1
		c0,4.8-1.2,9.2-3.5,13.1c-2.3,3.9-5.6,6.9-9.6,9.1c-4.1,2.2-8.7,3.3-13.8,3.3C-112.7,524-117.3,522.9-121.4,520.7 M-99.7,512.3
		c2.3-1.3,4.2-3.2,5.5-5.6c1.3-2.4,2-5.1,2-8.2c0-3-0.7-5.8-2-8.2c-1.3-2.4-3.2-4.3-5.5-5.6c-2.3-1.3-5-2-7.9-2
		c-2.9,0-5.5,0.7-7.9,2c-2.3,1.3-4.2,3.2-5.5,5.6c-1.3,2.4-2,5.1-2,8.2c0,3,0.7,5.8,2,8.2c1.3,2.4,3.2,4.3,5.5,5.6
		c2.3,1.3,5,2,7.9,2C-104.7,514.3-102,513.6-99.7,512.3"/>
	<path class="st0" d="M-298.1,67.8c0,6.5-5.3,11.8-11.8,11.8c-6.5,0-11.8-5.3-11.8-11.8c0-6.5,5.3-11.8,11.8-11.8
		C-303.4,56-298.1,61.3-298.1,67.8"/>
	<path class="st4" d="M-268.5,67.8c0,6.5-5.3,11.8-11.8,11.8c-6.5,0-11.8-5.3-11.8-11.8c0-6.5,5.3-11.8,11.8-11.8
		C-273.8,56-268.5,61.3-268.5,67.8"/>
	<path class="st0" d="M-239,67.8c0,6.5-5.3,11.8-11.8,11.8c-6.5,0-11.8-5.3-11.8-11.8c0-6.5,5.3-11.8,11.8-11.8
		C-244.3,56-239,61.3-239,67.8"/>
	<path class="st0" d="M-209.6,67.8c0,6.5-5.3,11.8-11.8,11.8c-6.5,0-11.8-5.3-11.8-11.8c0-6.5,5.3-11.8,11.8-11.8
		C-214.9,56-209.6,61.3-209.6,67.8"/>
	<path class="st0" d="M-180.1,67.8c0,6.5-5.3,11.8-11.8,11.8c-6.5,0-11.8-5.3-11.8-11.8c0-6.5,5.3-11.8,11.8-11.8
		C-185.3,56-180.1,61.3-180.1,67.8"/>
	<path class="st0" d="M-183.8,35.9c0,4.5-3.6,8.1-8.1,8.1c-4.5,0-8.1-3.6-8.1-8.1c0-4.5,3.6-8.1,8.1-8.1
		C-187.4,27.8-183.8,31.4-183.8,35.9"/>
	<path class="st4" d="M-213.3,35.9c0,4.5-3.6,8.1-8.1,8.1c-4.5,0-8.1-3.6-8.1-8.1c0-4.5,3.6-8.1,8.1-8.1
		C-216.9,27.8-213.3,31.4-213.3,35.9"/>
	<path class="st0" d="M-242.8,35.9c0,4.5-3.6,8.1-8.1,8.1s-8.1-3.6-8.1-8.1c0-4.5,3.6-8.1,8.1-8.1S-242.8,31.4-242.8,35.9"/>
	<path class="st0" d="M-272.3,35.9c0,4.5-3.6,8.1-8.1,8.1c-4.5,0-8.1-3.6-8.1-8.1c0-4.5,3.6-8.1,8.1-8.1
		C-275.9,27.8-272.3,31.4-272.3,35.9"/>
	<path class="st0" d="M-301.8,35.9c0,4.5-3.6,8.1-8.1,8.1c-4.5,0-8.1-3.6-8.1-8.1c0-4.5,3.6-8.1,8.1-8.1
		C-305.4,27.8-301.8,31.4-301.8,35.9"/>
	<path class="st4" d="M-187.1,12.3c0,2.6-2.1,4.8-4.8,4.8c-2.6,0-4.8-2.1-4.8-4.8c0-2.6,2.1-4.8,4.8-4.8
		C-189.2,7.5-187.1,9.6-187.1,12.3"/>
	<path class="st0" d="M-216.6,12.3c0,2.6-2.1,4.8-4.8,4.8c-2.6,0-4.8-2.1-4.8-4.8c0-2.6,2.1-4.8,4.8-4.8
		C-218.7,7.5-216.6,9.6-216.6,12.3"/>
	<path class="st0" d="M-246.1,12.3c0,2.6-2.1,4.8-4.8,4.8c-2.6,0-4.8-2.1-4.8-4.8c0-2.6,2.1-4.8,4.8-4.8
		C-248.3,7.5-246.1,9.6-246.1,12.3"/>
	<path class="st0" d="M-275.6,12.3c0,2.6-2.1,4.8-4.8,4.8c-2.6,0-4.8-2.1-4.8-4.8c0-2.6,2.1-4.8,4.8-4.8
		C-277.8,7.5-275.6,9.6-275.6,12.3"/>
	<path class="st0" d="M-305.1,12.3c0,2.6-2.1,4.8-4.8,4.8c-2.6,0-4.8-2.1-4.8-4.8c0-2.6,2.1-4.8,4.8-4.8
		C-307.3,7.5-305.1,9.6-305.1,12.3"/>
	<path class="st0" d="M-318,100.1c0-4.5,3.6-8.1,8.1-8.1c4.5,0,8.1,3.6,8.1,8.1c0,4.5-3.6,8.1-8.1,8.1
		C-314.4,108.1-318,104.5-318,100.1"/>
	<path class="st0" d="M-288.5,100.1c0-4.5,3.6-8.1,8.1-8.1c4.5,0,8.1,3.6,8.1,8.1c0,4.5-3.6,8.1-8.1,8.1
		C-284.9,108.1-288.5,104.5-288.5,100.1"/>
	<path class="st0" d="M-259,100.1c0-4.5,3.6-8.1,8.1-8.1c4.5,0,8.1,3.6,8.1,8.1c0,4.5-3.6,8.1-8.1,8.1
		C-255.4,108.1-259,104.5-259,100.1"/>
	<path class="st0" d="M-229.5,100.1c0-4.5,3.6-8.1,8.1-8.1c4.5,0,8.1,3.6,8.1,8.1c0,4.5-3.6,8.1-8.1,8.1
		C-225.8,108.1-229.5,104.5-229.5,100.1"/>
	<path class="st0" d="M-200,100.1c0-4.5,3.6-8.1,8.1-8.1c4.5,0,8.1,3.6,8.1,8.1c0,4.5-3.6,8.1-8.1,8.1
		C-196.3,108.1-200,104.5-200,100.1"/>
	<path class="st0" d="M-314.7,123.7c0-2.6,2.1-4.8,4.8-4.8c2.6,0,4.8,2.1,4.8,4.8c0,2.6-2.1,4.8-4.8,4.8
		C-312.6,128.4-314.7,126.3-314.7,123.7"/>
	<path class="st0" d="M-285.2,123.7c0-2.6,2.1-4.8,4.8-4.8c2.6,0,4.8,2.1,4.8,4.8c0,2.6-2.1,4.8-4.8,4.8
		C-283,128.4-285.2,126.3-285.2,123.7"/>
	<path class="st4" d="M-255.7,123.7c0-2.6,2.1-4.8,4.8-4.8c2.6,0,4.8,2.1,4.8,4.8c0,2.6-2.1,4.8-4.8,4.8
		C-253.5,128.4-255.7,126.3-255.7,123.7"/>
	<path class="st0" d="M-226.2,123.7c0-2.6,2.1-4.8,4.8-4.8c2.6,0,4.8,2.1,4.8,4.8c0,2.6-2.1,4.8-4.8,4.8
		C-224,128.4-226.2,126.3-226.2,123.7"/>
	<path class="st0" d="M-196.6,123.7c0-2.6,2.1-4.8,4.8-4.8c2.6,0,4.8,2.1,4.8,4.8c0,2.6-2.1,4.8-4.8,4.8
		C-194.5,128.4-196.6,126.3-196.6,123.7"/>
	<polygon class="st4" points="-348,220.1 -348,229.3 -391,229.3 -391,222 -364,189.4 -390.5,189.4 -390.5,180.1 -349,180.1 
		-349,187.5 -376,220.1 	"/>
	<path class="st4" d="M-320.1,226.9c-4.1-2.2-7.3-5.2-9.6-9.1c-2.3-3.9-3.5-8.2-3.5-13.1c0-4.8,1.2-9.2,3.5-13.1
		c2.3-3.9,5.5-6.9,9.6-9.1c4.1-2.2,8.7-3.3,13.8-3.3c5.1,0,9.7,1.1,13.8,3.3c4.1,2.2,7.3,5.2,9.6,9.1c2.3,3.9,3.5,8.2,3.5,13.1
		c0,4.8-1.2,9.2-3.5,13.1c-2.3,3.9-5.6,6.9-9.6,9.1c-4.1,2.2-8.7,3.3-13.8,3.3C-311.4,230.2-316,229.1-320.1,226.9 M-298.4,218.5
		c2.3-1.3,4.2-3.2,5.5-5.6c1.3-2.4,2-5.1,2-8.2c0-3-0.7-5.8-2-8.2c-1.3-2.4-3.2-4.3-5.5-5.6c-2.3-1.3-5-2-7.9-2
		c-2.9,0-5.5,0.7-7.9,2c-2.3,1.3-4.2,3.2-5.5,5.6c-1.3,2.4-2,5.1-2,8.2c0,3,0.7,5.8,2,8.2c1.3,2.4,3.2,4.3,5.5,5.6
		c2.3,1.3,5,2,7.9,2C-303.4,220.5-300.7,219.8-298.4,218.5"/>
	<path class="st4" d="M-222.2,208.2c1.6,2.1,2.4,4.7,2.4,7.7c0,4.3-1.7,7.6-5,10c-3.4,2.3-8.2,3.5-14.7,3.5h-20.8v-49.3h19.4
		c6,0,10.6,1.2,13.8,3.4c3.2,2.3,4.8,5.4,4.8,9.4c0,2.4-0.6,4.5-1.7,6.4c-1.2,1.9-2.8,3.4-4.8,4.4
		C-226,204.6-223.8,206.1-222.2,208.2 M-250.2,188.7v11.6h6.6c2.8,0,4.9-0.5,6.4-1.5c1.5-1,2.2-2.4,2.2-4.4c0-1.9-0.7-3.4-2.2-4.3
		c-1.5-1-3.6-1.4-6.4-1.4H-250.2z M-234.8,219.3c1.5-1,2.3-2.5,2.3-4.6c0-4.1-3-6.1-9.1-6.1h-8.6v12.2h8.6
		C-238.6,220.8-236.3,220.3-234.8,219.3"/>
	<rect x="-197.2" y="180.1" class="st4" width="11.4" height="49.3"/>
	<path class="st4" d="M-151.5,226.9c-4.1-2.2-7.3-5.2-9.6-9.1c-2.3-3.9-3.5-8.2-3.5-13.1c0-4.8,1.2-9.2,3.5-13.1
		c2.3-3.9,5.5-6.9,9.6-9.1c4.1-2.2,8.7-3.3,13.8-3.3c5.1,0,9.7,1.1,13.8,3.3c4.1,2.2,7.3,5.2,9.6,9.1c2.3,3.9,3.5,8.2,3.5,13.1
		c0,4.8-1.2,9.2-3.5,13.1c-2.3,3.9-5.6,6.9-9.6,9.1c-4.1,2.2-8.7,3.3-13.8,3.3C-142.8,230.2-147.4,229.1-151.5,226.9 M-129.8,218.5
		c2.3-1.3,4.2-3.2,5.5-5.6c1.3-2.4,2-5.1,2-8.2c0-3-0.7-5.8-2-8.2c-1.3-2.4-3.2-4.3-5.5-5.6c-2.3-1.3-5-2-7.9-2
		c-2.9,0-5.5,0.7-7.9,2c-2.3,1.3-4.2,3.2-5.5,5.6c-1.3,2.4-2,5.1-2,8.2c0,3,0.7,5.8,2,8.2c1.3,2.4,3.2,4.3,5.5,5.6
		c2.3,1.3,5,2,7.9,2C-134.8,220.5-132.2,219.8-129.8,218.5"/>
</g>
<g>
</g>
<g>
</g>
<g>
</g>
<g>
</g>
<g>
</g>
<g>
</g>
</svg>
